<?xml version="1.0" encoding="utf-8"?>
<!-- Generator: Adobe Illustrator 16.0.0, SVG Export Plug-In . SVG Version: 6.00 Build 0)  -->
<!DOCTYPE svg PUBLIC "-//W3C//DTD SVG 1.1//EN" "http://www.w3.org/Graphics/SVG/1.1/DTD/svg11.dtd">
<svg version="1.1" id="レイヤー_1" xmlns="http://www.w3.org/2000/svg" xmlns:xlink="http://www.w3.org/1999/xlink" x="0px"
	 y="0px" width="496.726px" height="72.144px" viewBox="0 0 496.726 72.144" style="enable-background:new 0 0 496.726 72.144;"
	 xml:space="preserve">
<style type="text/css">
<![CDATA[
	.st0{fill:#231815;}
	.st1{fill:#F5C0D7;}
	.st2{fill:#FAE5EE;}
	.st3{fill:#009A61;}
]]>
</style>
<g>
	<g>
		<g>
			<path class="st3" d="M55.494,62.43c0,5.362-12.422,9.714-27.747,9.714C12.419,72.144,0,67.792,0,62.43
				c0-5.358,12.419-9.714,27.747-9.714C43.071,52.716,55.494,57.072,55.494,62.43z"/>
			<path class="st1" d="M55.494,36.075c0,5.356-12.422,9.708-27.747,9.708C12.419,45.783,0,41.431,0,36.075
				c0-5.365,12.419-9.713,27.747-9.713C43.071,26.361,55.494,30.71,55.494,36.075z"/>
			<path class="st2" d="M55.494,9.709c0,5.371-12.422,9.717-27.747,9.717C12.419,19.427,0,15.08,0,9.709C0,4.345,12.419,0,27.747,0
				C43.071,0,55.494,4.345,55.494,9.709z"/>
		</g>
		<path class="st0" d="M119.357,55.343c-0.412-0.086-0.935-0.131-1.589-0.131h-30.81v-1.168c1.297,0,1.943-0.389,1.943-1.162V23.448
			c0-0.783-0.646-1.17-1.943-1.17V21.11h11.11v1.168c-1.205,0-1.812,0.387-1.812,1.162v25.784h21.512
			c0.654,0,1.178-0.143,1.589-0.457c0.408-0.299,0.608-0.705,0.608-1.221h1.177v8.891h-1.177
			C119.966,55.789,119.766,55.426,119.357,55.343z"/>
		<path class="st0" d="M148.848,27.249c2.094,0.602,3.921,1.51,5.48,2.723c1.551,1.214,2.787,2.732,3.687,4.568
			c0.908,1.836,1.37,3.986,1.37,6.445c0,2.463-0.462,4.611-1.37,6.457c-0.9,1.83-2.136,3.355-3.687,4.561
			c-1.559,1.214-3.386,2.094-5.48,2.631c-2.101,0.546-4.333,0.808-6.704,0.808c-2.386,0-4.626-0.262-6.719-0.808
			c-2.09-0.537-3.918-1.417-5.473-2.631c-1.559-1.205-2.79-2.73-3.694-4.561c-0.904-1.846-1.362-3.994-1.362-6.457
			c0-2.459,0.458-4.609,1.362-6.445c0.904-1.835,2.136-3.354,3.694-4.568c1.555-1.212,3.383-2.121,5.473-2.723
			c2.093-0.604,4.333-0.91,6.719-0.91C144.515,26.338,146.747,26.645,148.848,27.249 M138.08,31.797
			c-1.312,0.452-2.501,1.103-3.537,1.941c-1.036,0.845-1.867,1.874-2.49,3.081c-0.627,1.21-0.943,2.592-0.943,4.149
			c0,1.559,0.316,2.936,0.943,4.146c0.623,1.208,1.454,2.232,2.49,3.08c1.035,0.846,2.224,1.492,3.537,1.938
			c1.324,0.467,2.674,0.691,4.064,0.691c1.374,0,2.728-0.225,4.048-0.691c1.316-0.445,2.498-1.092,3.533-1.938
			c1.031-0.848,1.87-1.872,2.501-3.08c0.627-1.211,0.939-2.588,0.939-4.146c0-1.557-0.312-2.938-0.939-4.149
			c-0.631-1.207-1.47-2.236-2.501-3.081c-1.035-0.839-2.217-1.489-3.533-1.941c-1.32-0.458-2.675-0.683-4.048-0.683
			C140.754,31.114,139.404,31.339,138.08,31.797z"/>
		<path class="st0" d="M174.805,53.822c0.219-0.154,0.331-0.396,0.331-0.746V31.491h-8.428c-0.342,0-0.669,0.088-0.974,0.266
			c-0.296,0.169-0.446,0.45-0.446,0.841h-1.174V25.13h1.174c0,0.616,0.15,1.035,0.446,1.257c0.304,0.225,0.631,0.333,0.974,0.333
			h23.071c0.334,0,0.658-0.108,0.966-0.333c0.304-0.222,0.454-0.641,0.454-1.257h1.166v7.468h-1.166c0-0.391-0.15-0.671-0.454-0.841
			c-0.308-0.177-0.631-0.266-0.966-0.266h-8.432v21.584c0,0.65,0.385,0.969,1.166,0.969v1.168h-8.351v-1.168
			C174.374,54.044,174.593,53.97,174.805,53.822z"/>
		<path class="st0" d="M208.471,27.885c-0.947,0-1.424,0.319-1.424,0.974v14.857c0,2.076,0.754,3.736,2.263,4.996
			c1.501,1.257,3.806,1.873,6.912,1.873c3.098,0,5.399-0.616,6.9-1.873c1.516-1.26,2.267-2.92,2.267-4.996V28.859
			c0-0.654-0.546-0.974-1.62-0.974v-1.166h9.032v1.166c-0.955,0-1.428,0.319-1.428,0.974v16.402c0,1.341-0.3,2.634-0.905,3.863
			c-0.6,1.229-1.528,2.318-2.755,3.27c-1.232,0.948-2.81,1.701-4.726,2.238c-1.92,0.546-4.176,0.808-6.765,0.808
			c-2.598,0-4.857-0.262-6.77-0.808c-1.928-0.537-3.502-1.29-4.733-2.238c-1.231-0.951-2.155-2.04-2.752-3.27
			c-0.608-1.229-0.912-2.522-0.912-3.863V28.859c0-0.344-0.127-0.6-0.389-0.745c-0.258-0.152-0.747-0.229-1.485-0.229v-1.166h9.29
			V27.885z"/>
		<path class="st0" d="M244.811,45.315c0,0.163-0.012,0.353-0.039,0.538c-0.015,0.204-0.035,0.408-0.035,0.628
			c0,0.648,0.416,1.237,1.235,1.778c0.824,0.534,1.805,0.994,2.948,1.357c1.151,0.37,2.294,0.66,3.437,0.884
			c1.146,0.21,2.047,0.323,2.697,0.323c0.601,0,1.344-0.045,2.229-0.135c0.889-0.083,1.762-0.266,2.625-0.557
			c0.865-0.274,1.601-0.667,2.209-1.162c0.6-0.49,0.908-1.154,0.908-1.978c0-0.938-0.535-1.636-1.59-2.067
			c-1.066-0.43-2.391-0.766-3.986-1.006c-1.602-0.236-3.326-0.473-5.185-0.706c-1.866-0.244-3.594-0.631-5.191-1.174
			c-1.597-0.538-2.929-1.31-3.983-2.332c-1.062-1.011-1.597-2.447-1.597-4.306c0-2.755,1.155-4.962,3.44-6.604
			c2.297-1.635,5.515-2.459,9.675-2.459c2.032,0,3.771,0.166,5.219,0.489c1.454,0.323,2.679,0.675,3.667,1.058
			c0.993,0.393,1.809,0.747,2.432,1.07c0.628,0.321,1.098,0.481,1.397,0.481c0.347,0,0.601-0.056,0.777-0.16
			c0.181-0.111,0.39-0.227,0.655-0.352l0.711,0.705l-3.248,6.088l-1.17-0.393c-0.046-0.254-0.092-0.512-0.127-0.771
			c-0.042-0.262-0.242-0.525-0.588-0.779c-0.859-0.731-2.205-1.362-4.029-1.882c-1.812-0.518-3.85-0.777-6.096-0.777
			c-0.867,0-1.69,0.054-2.468,0.162c-0.781,0.111-1.47,0.296-2.078,0.554c-0.608,0.26-1.085,0.593-1.431,1.004
			c-0.343,0.41-0.52,0.918-0.52,1.524c0,0.949,0.535,1.634,1.593,2.043c1.054,0.41,2.382,0.735,3.979,0.974
			c1.604,0.235,3.328,0.478,5.195,0.71c1.851,0.24,3.582,0.639,5.18,1.201c1.597,0.56,2.928,1.389,3.99,2.471
			c1.059,1.075,1.59,2.57,1.59,4.47c0,1.911-0.47,3.469-1.394,4.67c-0.935,1.218-2.089,2.169-3.475,2.855
			c-1.382,0.696-2.905,1.148-4.561,1.364c-1.667,0.219-3.237,0.323-4.702,0.323c-1.471,0-2.93-0.139-4.373-0.419
			c-1.45-0.281-2.77-0.613-3.952-0.977c-1.189-0.367-2.197-0.721-3.017-1.043c-0.82-0.328-1.32-0.492-1.485-0.492
			c-0.308,0-0.57,0.129-0.789,0.398l-0.9-0.65l2.982-7.268L244.811,45.315z"/>
		<path class="st0" d="M334.963,50.585c-0.131,0-0.25-0.01-0.357-0.029c-0.108-0.021-0.228-0.035-0.351-0.035
			c-0.266,0-0.882,0.258-1.852,0.779c-0.974,0.516-2.205,1.104-3.694,1.75s-3.183,1.204-5.088,1.678
			c-1.9,0.479-3.887,0.712-5.965,0.712c-2.721,0-5.326-0.341-7.839-1.035c-2.505-0.692-4.722-1.767-6.638-3.218
			c-1.925-1.441-3.445-3.252-4.564-5.408c-1.124-2.163-1.682-4.695-1.682-7.594c0-2.857,0.558-5.377,1.682-7.56
			c1.119-2.18,2.64-4.01,4.564-5.48c1.916-1.474,4.133-2.571,6.638-3.312c2.513-0.733,5.118-1.099,7.839-1.099
			c2.209,0,4.207,0.167,5.992,0.518c1.801,0.348,3.367,0.717,4.703,1.11c1.343,0.389,2.397,0.758,3.178,1.112
			c0.773,0.344,1.248,0.516,1.424,0.516c0.213,0,0.396-0.108,0.551-0.323c0.15-0.219,0.273-0.396,0.354-0.523l0.974,0.783
			l-5.053,7.856l-0.646-0.458c0-0.127-0.016-0.254-0.031-0.383c-0.023-0.129-0.054-0.283-0.1-0.456
			c-0.085-0.473-0.52-0.96-1.301-1.458c-0.773-0.497-1.736-0.941-2.883-1.332c-1.146-0.381-2.352-0.712-3.621-0.966
			c-1.277-0.258-2.455-0.393-3.541-0.393c-1.809,0-3.556,0.26-5.215,0.777c-1.662,0.523-3.105,1.278-4.336,2.272
			c-1.232,0.995-2.217,2.215-2.952,3.662c-0.731,1.447-1.097,3.106-1.097,4.959c0,1.857,0.365,3.513,1.097,4.96
			c0.735,1.448,1.72,2.671,2.952,3.667c1.23,0.995,2.674,1.748,4.336,2.27c1.659,0.521,3.406,0.781,5.215,0.781
			c1.386,0,2.829-0.16,4.35-0.489c1.516-0.327,2.89-0.741,4.141-1.231c1.25-0.504,2.309-1.059,3.144-1.68
			c0.843-0.627,1.271-1.225,1.271-1.781c0-0.312-0.089-0.572-0.266-0.779l0.912-0.524l4.271,6.866L334.963,50.585z"/>
		<path class="st0" d="M354.555,26.719v1.166c-0.989,0-1.489,0.319-1.489,0.974v21.58h17.491c0.516,0,0.95-0.117,1.297-0.352
			c0.342-0.243,0.516-0.578,0.516-1.006h1.17v6.814h-1.17c0-0.359-0.174-0.568-0.516-0.61c-0.347-0.052-0.781-0.073-1.297-0.073
			h-25.392v-1.168c1.12,0,1.682-0.318,1.682-0.969V28.859c0-0.654-0.562-0.978-1.682-0.978v-1.162H354.555z"/>
		<path class="st0" d="M382.11,54.044c0.688,0,1.178-0.064,1.424-0.223c0.258-0.154,0.393-0.396,0.393-0.746V28.859
			c0-0.35-0.135-0.6-0.393-0.745c-0.246-0.156-0.735-0.233-1.424-0.233v-1.162h9.848v1.162c-1.212,0-1.82,0.323-1.82,0.978v24.217
			c0,0.65,0.608,0.969,1.82,0.969v1.168h-9.848V54.044z"/>
		<path class="st0" d="M403.168,54.044c0.773,0,1.158-0.318,1.158-0.969V28.859c0-0.654-0.385-0.978-1.158-0.978v-1.162h9.513v1.162
			c-0.3,0.046-0.454,0.154-0.454,0.323c0,0.216,0.474,0.805,1.428,1.751l15.536,16.456V28.859c0-0.654-0.431-0.978-1.301-0.978
			v-1.162h7.916v1.162c-0.77,0-1.158,0.323-1.158,0.978v24.217c0,0.65,0.389,0.969,1.158,0.969v1.168h-8.409v-1.168
			c0.301,0,0.455-0.098,0.455-0.318c0-0.172-0.209-0.475-0.616-0.905c-0.412-0.431-0.878-0.925-1.397-1.491l-16.051-17.1v18.846
			c0,0.65,0.453,0.969,1.361,0.969v1.168h-7.98V54.044z"/>
		<path class="st0" d="M446.932,54.044c0.688,0,1.162-0.064,1.42-0.223c0.262-0.154,0.393-0.396,0.393-0.746V28.859
			c0-0.35-0.131-0.6-0.393-0.745c-0.258-0.156-0.731-0.233-1.42-0.233v-1.162h9.836v1.162c-1.212,0-1.812,0.323-1.812,0.978v24.217
			c0,0.65,0.601,0.969,1.812,0.969v1.168h-9.836V54.044z"/>
		<path class="st0" d="M490.446,34.872c0-0.086-0.012-0.171-0.035-0.26c-0.022-0.081-0.034-0.192-0.034-0.321
			c0-0.217-0.216-0.504-0.65-0.875c-0.436-0.37-1.047-0.724-1.844-1.072c-0.8-0.344-1.739-0.637-2.817-0.875
			c-1.081-0.231-2.267-0.354-3.57-0.354c-1.551,0-2.968,0.204-4.245,0.612c-1.267,0.41-2.382,1.027-3.333,1.855
			c-0.95,0.816-1.689,1.828-2.205,3.04c-0.52,1.22-0.777,2.597-0.777,4.156c0,1.55,0.297,2.949,0.878,4.178
			c0.585,1.229,1.347,2.294,2.298,3.17c0.953,0.891,2.035,1.562,3.244,2.008c1.204,0.467,2.436,0.691,3.697,0.691
			c1.158,0,2.344-0.152,3.553-0.46c1.216-0.306,2.312-0.654,3.31-1.065c0.992-0.404,1.797-0.855,2.428-1.332
			c0.632-0.474,0.943-0.904,0.943-1.299v-0.514c0-0.264-0.016-0.472-0.062-0.65l0.704-0.643l4.799,6.873l-0.646,0.315
			c-0.516-0.206-0.889-0.315-1.101-0.315c-0.347,0-0.912,0.196-1.682,0.587c-0.785,0.385-1.767,0.827-2.956,1.331
			c-1.182,0.504-2.566,0.92-4.148,1.273c-1.578,0.346-3.332,0.515-5.272,0.515c-1.993,0-3.963-0.279-5.903-0.845
			c-1.947-0.555-3.667-1.453-5.18-2.688c-1.517-1.232-2.747-2.76-3.694-4.602c-0.955-1.834-1.42-3.96-1.42-6.387
			c0-2.416,0.465-4.531,1.42-6.349c0.947-1.817,2.205-3.333,3.764-4.57c1.547-1.231,3.325-2.149,5.338-2.751
			c2.005-0.604,4.075-0.91,6.195-0.91c1.636,0,3.137,0.156,4.495,0.458c1.366,0.296,2.56,0.641,3.599,1.029
			c1.035,0.387,1.908,0.733,2.59,1.033c0.688,0.296,1.189,0.446,1.489,0.446c0.223,0,0.4-0.06,0.558-0.192
			c0.15-0.134,0.312-0.23,0.489-0.323l0.77,0.456l-4.271,6.148L490.446,34.872z"/>
	</g>
</g>
<g>
</g>
<g>
</g>
<g>
</g>
<g>
</g>
<g>
</g>
<g>
</g>
<g>
</g>
<g>
</g>
<g>
</g>
<g>
</g>
<g>
</g>
<g>
</g>
<g>
</g>
<g>
</g>
<g>
</g>
</svg>
